<svg xmlns="http://www.w3.org/2000/svg" viewBox="0 0 512 512" fill="none">
  <defs>
    <linearGradient id="bg" x1="0" y1="0" x2="1" y2="1">
      <stop offset="0%" stop-color="#1a1a1a"/>
      <stop offset="100%" stop-color="#0a0a0a"/>
    </linearGradient>
  </defs>
  <!-- Rounded square background -->
  <rect width="512" height="512" rx="112" fill="url(#bg)"/>
  <!-- Hand icon -->
  <g transform="translate(126, 80) scale(1.08)" stroke="white" stroke-width="16" stroke-linecap="round" stroke-linejoin="round" fill="none">
    <path d="M240 146V80a26 26 0 0 0-26-26a26 26 0 0 0-26 26"/>
    <path d="M188 134V54a26 26 0 0 0-26-26a26 26 0 0 0-26 26v26"/>
    <path d="M136 140V80a26 26 0 0 0-26-26a26 26 0 0 0-26 26v106"/>
    <path d="M240 106a26 26 0 1 1 52 0v80a106 106 0 0 1-106 106h-26c-37 0-60-11-80-31l-48-48a26 26 0 0 1 37-37L96 200"/>
  </g>
</svg>
